<svg width="18" height="12" viewBox="0 0 18 12" fill="none" xmlns="http://www.w3.org/2000/svg">
<g filter="url(#filter0_i_123_12)">
<rect x="5.00977" y="1.07605" width="3.07617" height="4" fill="#2D88DD"/>
<path d="M5.01014 8.01078C2.10937 5.36408 3.80149 4.98546 5.01014 5.07031V1.07605C-4.65729 1.07605 2.6684 5.87312 5.01014 8.01078Z" fill="#2D88DD"/>
<path d="M12.5332 3.07611L8.04391 5.668L8.04391 0.484219L12.5332 3.07611Z" fill="#2D88DD"/>
</g>
<g filter="url(#filter1_i_123_12)">
<rect x="13" y="10.3871" width="3.07617" height="4" transform="rotate(-180 13 10.3871)" fill="#2D88DD"/>
<path d="M12.9996 3.45235C15.9004 6.09906 14.2083 6.47767 12.9996 6.39282L12.9996 10.3871C22.6671 10.3871 15.3414 5.59002 12.9996 3.45235Z" fill="#2D88DD"/>
<path d="M5.47656 8.38702L9.96585 5.79513L9.96585 10.9789L5.47656 8.38702Z" fill="#2D88DD"/>
</g>
<defs>
<filter id="filter0_i_123_12" x="0.144531" y="0.484253" width="12.3887" height="9.52649" filterUnits="userSpaceOnUse" color-interpolation-filters="sRGB">
<feFlood flood-opacity="0" result="BackgroundImageFix"/>
<feBlend mode="normal" in="SourceGraphic" in2="BackgroundImageFix" result="shape"/>
<feColorMatrix in="SourceAlpha" type="matrix" values="0 0 0 0 0 0 0 0 0 0 0 0 0 0 0 0 0 0 127 0" result="hardAlpha"/>
<feOffset dy="2"/>
<feGaussianBlur stdDeviation="2"/>
<feComposite in2="hardAlpha" operator="arithmetic" k2="-1" k3="1"/>
<feColorMatrix type="matrix" values="0 0 0 0 0 0 0 0 0 0 0 0 0 0 0 0 0 0 0.37 0"/>
<feBlend mode="normal" in2="shape" result="effect1_innerShadow_123_12"/>
</filter>
<filter id="filter1_i_123_12" x="5.47656" y="3.45239" width="12.3887" height="9.52649" filterUnits="userSpaceOnUse" color-interpolation-filters="sRGB">
<feFlood flood-opacity="0" result="BackgroundImageFix"/>
<feBlend mode="normal" in="SourceGraphic" in2="BackgroundImageFix" result="shape"/>
<feColorMatrix in="SourceAlpha" type="matrix" values="0 0 0 0 0 0 0 0 0 0 0 0 0 0 0 0 0 0 127 0" result="hardAlpha"/>
<feOffset dy="2"/>
<feGaussianBlur stdDeviation="2"/>
<feComposite in2="hardAlpha" operator="arithmetic" k2="-1" k3="1"/>
<feColorMatrix type="matrix" values="0 0 0 0 0 0 0 0 0 0 0 0 0 0 0 0 0 0 0.37 0"/>
<feBlend mode="normal" in2="shape" result="effect1_innerShadow_123_12"/>
</filter>
</defs>
</svg>
